<svg xmlns="http://www.w3.org/2000/svg" viewBox="0 0 32 32" shape-rendering="geometricPrecision">
  <circle cx="16" cy="16" r="15" fill="#1a2030" stroke="#f5b73d" stroke-width="2"/>
  <path d="M16 16 L16 1 A15 15 0 0 1 28.99 8.5 Z" fill="#6ea8ff"/>
  <path d="M16 16 L28.99 8.5 A15 15 0 0 1 28.99 23.5 Z" fill="#4caf50"/>
  <path d="M16 16 L28.99 23.5 A15 15 0 0 1 16 31 Z" fill="#f5b73d"/>
  <path d="M16 16 L16 31 A15 15 0 0 1 3.01 23.5 Z" fill="#b06eff"/>
  <path d="M16 16 L3.01 23.5 A15 15 0 0 1 3.01 8.5 Z" fill="#ff6e6e"/>
  <path d="M16 16 L3.01 8.5 A15 15 0 0 1 16 1 Z" fill="#7ee0a6"/>
  <circle cx="16" cy="16" r="3.2" fill="#ffffff"/>
</svg>
